<?xml version="1.0" encoding="UTF-8" standalone="no"?><!DOCTYPE svg PUBLIC "-//W3C//DTD SVG 1.1//EN" "http://www.w3.org/Graphics/SVG/1.1/DTD/svg11.dtd"><svg width="100%" height="100%" viewBox="0 0 125 125" version="1.1" xmlns="http://www.w3.org/2000/svg" xmlns:xlink="http://www.w3.org/1999/xlink" xml:space="preserve" xmlns:serif="http://www.serif.com/" style="fill-rule:evenodd;clip-rule:evenodd;stroke-linejoin:round;stroke-miterlimit:2;"><rect id="dark" x="0" y="0" width="124.816" height="124.816" style="fill:none;"/><path d="M37.678,33.369c-1.385,-1.941 -2.196,-4.292 -2.196,-6.825c-0,-6.665 5.614,-12.069 12.539,-12.069c1.059,-4.744 4.831,-8.616 9.896,-10.159c5.062,-1.54 10.652,-0.519 14.658,2.693c4.007,3.204 5.822,8.097 4.766,12.841l2.666,-0c5.151,-0 9.327,4.2 9.327,9.386c-0,2.669 -1.105,5.077 -2.88,6.786l-7.088,-5.76l-16.958,-15.222l-18.544,15.084l-6.186,3.245Z" style="fill:#fff;fill-rule:nonzero;"/><path d="M40.349,68.728l44.118,-0l0,-20.267c0,-6.894 -2.344,-10.341 -7.031,-10.341c-0.552,0 -1.54,0.138 -2.964,0.414c-1.425,0.276 -2.643,0.414 -3.654,0.414c-2.941,-0 -4.412,-1.517 -4.412,-4.55c0,-3.309 1.976,-4.963 5.929,-4.963c1.286,-0 3.63,0.275 7.031,0.827c3.401,0.551 6.526,0.827 9.375,0.827c4.596,-0 9.192,-0.322 13.787,-0.965c2.666,-0.368 4.412,-0.552 5.239,-0.552c4.045,0 6.067,1.609 6.067,4.826c-0,2.941 -1.425,4.412 -4.274,4.412c-0.736,-0 -1.839,-0.115 -3.309,-0.345c-1.471,-0.23 -2.574,-0.345 -3.309,-0.345c-4.688,0 -7.031,3.447 -7.031,10.341l-0,55.01c-0,6.894 2.297,10.34 6.893,10.34c0.735,0 1.861,-0.115 3.378,-0.344c1.516,-0.23 2.642,-0.345 3.378,-0.345c2.849,-0 4.274,1.471 4.274,4.412c-0,3.309 -2.022,4.963 -6.067,4.963c-0.827,0 -2.619,-0.276 -5.377,-0.827c-3.217,-0.643 -6.709,-0.965 -10.478,-0.965c-5.055,-0 -9.329,0.276 -12.822,0.827c-4.044,0.643 -6.25,0.965 -6.617,0.965c-4.045,0 -6.067,-1.654 -6.067,-4.963c0,-3.033 1.471,-4.55 4.412,-4.55c0.735,0 1.838,0.115 3.309,0.345c1.471,0.23 2.574,0.344 3.309,0.344c3.86,0 6.158,-2.527 6.893,-7.582c0.092,-0.644 0.138,-4.78 0.138,-12.409l0,-15.579l-44.118,-0l-0,15.717c-0,7.629 0.046,11.765 0.138,12.408c0.735,5.056 3.033,7.583 6.893,7.583c0.735,0 1.861,-0.115 3.378,-0.344c1.516,-0.23 2.642,-0.345 3.378,-0.345c2.849,-0 4.274,1.471 4.274,4.412c-0,3.309 -2.022,4.963 -6.067,4.963c-0.643,0 -2.619,-0.276 -5.928,-0.827c-4.412,-0.735 -8.272,-1.103 -11.581,-1.103c-3.861,-0 -7.997,0.368 -12.408,1.103l-3.309,0.551c-1.103,0.184 -1.701,0.276 -1.793,0.276c-4.228,0 -6.342,-1.654 -6.342,-4.963c0,-1.195 0.437,-2.252 1.31,-3.171c0.873,-0.919 1.907,-1.379 3.102,-1.379c0.827,0 2.068,0.138 3.723,0.414c1.011,0.275 1.976,0.413 2.895,0.413c4.687,0 7.031,-3.446 7.031,-10.34l0,-55.286c0,-6.894 -2.344,-10.34 -7.031,-10.34c-0.643,-0 -1.655,0.137 -3.033,0.413c-1.379,0.276 -2.574,0.414 -3.585,0.414c-1.195,-0 -2.229,-0.46 -3.102,-1.379c-0.873,-0.919 -1.31,-1.976 -1.31,-3.171c0,-3.217 2.114,-4.825 6.342,-4.825c0.828,-0 2.528,0.229 5.102,0.689c3.492,0.643 7.766,0.965 12.821,0.965c1.931,0 4.803,-0.276 8.617,-0.827c3.815,-0.552 6.641,-0.827 8.479,-0.827c4.045,-0 6.067,1.654 6.067,4.963c-0,1.287 -0.414,2.367 -1.241,3.24c-0.827,0.873 -1.838,1.31 -3.033,1.31c-1.011,-0 -2.252,-0.138 -3.723,-0.414c-1.47,-0.276 -2.481,-0.414 -3.033,-0.414c-4.504,0 -6.802,3.447 -6.893,10.341l-0.138,20.405Z" style="fill:#fff;fill-rule:nonzero;"/></svg>