<?xml version="1.0" encoding="UTF-8" standalone="no"?><!DOCTYPE svg PUBLIC "-//W3C//DTD SVG 1.1//EN" "http://www.w3.org/Graphics/SVG/1.1/DTD/svg11.dtd"><svg width="100%" height="100%" viewBox="0 0 206 27" version="1.1" xmlns="http://www.w3.org/2000/svg" xmlns:xlink="http://www.w3.org/1999/xlink" xml:space="preserve" xmlns:serif="http://www.serif.com/" style="fill-rule:evenodd;clip-rule:evenodd;stroke-linejoin:round;stroke-miterlimit:2;"><rect id="wide-dark" x="0" y="0" width="205.564" height="26.204" style="fill:none;"/><path d="M98.417,7.862c-0.245,-0.342 -0.388,-0.757 -0.388,-1.205c0,-1.176 0.991,-2.13 2.214,-2.13c0.187,-0.837 0.852,-1.521 1.746,-1.793c0.894,-0.272 1.881,-0.092 2.588,0.475c0.707,0.566 1.027,1.429 0.841,2.267l0.471,-0c0.909,-0 1.646,0.741 1.646,1.657c0,0.471 -0.195,0.896 -0.508,1.197l-1.251,-1.016l-2.994,-2.687l-3.273,2.662l-1.092,0.573Z" style="fill:#fff;fill-rule:nonzero;"/><path d="M98.888,14.104l7.788,-0l0,-3.578c0,-1.217 -0.414,-1.825 -1.241,-1.825c-0.097,-0 -0.272,0.024 -0.523,0.073c-0.252,0.049 -0.467,0.073 -0.645,0.073c-0.519,-0 -0.779,-0.268 -0.779,-0.803c-0,-0.584 0.349,-0.876 1.046,-0.876c0.228,-0 0.641,0.048 1.242,0.146c0.6,0.097 1.151,0.146 1.654,0.146c0.812,-0 1.623,-0.057 2.434,-0.171c0.471,-0.064 0.779,-0.097 0.925,-0.097c0.714,0 1.071,0.284 1.071,0.852c-0,0.519 -0.252,0.779 -0.755,0.779c-0.13,-0 -0.324,-0.021 -0.584,-0.061c-0.259,-0.041 -0.454,-0.061 -0.584,-0.061c-0.827,-0 -1.241,0.608 -1.241,1.825l-0,9.71c-0,1.217 0.406,1.825 1.217,1.825c0.13,0 0.328,-0.02 0.596,-0.06c0.268,-0.041 0.466,-0.061 0.596,-0.061c0.503,-0 0.755,0.259 0.755,0.779c-0,0.584 -0.357,0.876 -1.071,0.876c-0.146,-0 -0.463,-0.049 -0.949,-0.146c-0.568,-0.114 -1.185,-0.171 -1.85,-0.171c-0.892,0 -1.647,0.049 -2.263,0.146c-0.714,0.114 -1.103,0.171 -1.168,0.171c-0.714,-0 -1.071,-0.292 -1.071,-0.876c-0,-0.536 0.26,-0.804 0.779,-0.804c0.13,0 0.324,0.021 0.584,0.061c0.259,0.041 0.454,0.061 0.584,0.061c0.681,0 1.087,-0.446 1.217,-1.338c0.016,-0.114 0.024,-0.844 0.024,-2.191l0,-2.75l-7.788,0l0,2.775c0,1.346 0.009,2.076 0.025,2.19c0.13,0.892 0.535,1.338 1.217,1.338c0.129,0 0.328,-0.02 0.596,-0.06c0.267,-0.041 0.466,-0.061 0.596,-0.061c0.503,-0 0.754,0.259 0.754,0.779c0,0.584 -0.356,0.876 -1.07,0.876c-0.114,-0 -0.463,-0.049 -1.047,-0.146c-0.779,-0.13 -1.46,-0.195 -2.044,-0.195c-0.681,-0 -1.412,0.065 -2.19,0.195l-0.584,0.097c-0.195,0.032 -0.301,0.049 -0.317,0.049c-0.746,-0 -1.119,-0.292 -1.119,-0.876c-0,-0.211 0.077,-0.398 0.231,-0.56c0.154,-0.162 0.337,-0.244 0.548,-0.244c0.146,0 0.365,0.025 0.657,0.073c0.178,0.049 0.348,0.073 0.511,0.073c0.827,0 1.241,-0.608 1.241,-1.825l-0,-9.759c-0,-1.216 -0.414,-1.825 -1.241,-1.825c-0.114,0 -0.292,0.025 -0.536,0.073c-0.243,0.049 -0.454,0.073 -0.632,0.073c-0.211,0 -0.394,-0.081 -0.548,-0.243c-0.154,-0.162 -0.231,-0.349 -0.231,-0.56c-0,-0.568 0.373,-0.852 1.119,-0.852c0.146,0 0.446,0.041 0.901,0.122c0.616,0.114 1.371,0.17 2.263,0.17c0.341,0 0.848,-0.048 1.521,-0.146c0.673,-0.097 1.172,-0.146 1.497,-0.146c0.714,0 1.07,0.292 1.07,0.876c0,0.228 -0.073,0.418 -0.219,0.572c-0.146,0.155 -0.324,0.232 -0.535,0.232c-0.178,-0 -0.397,-0.025 -0.657,-0.073c-0.26,-0.049 -0.438,-0.073 -0.535,-0.073c-0.795,-0 -1.201,0.608 -1.217,1.825l-0.025,3.602Z" style="fill:#fff;fill-rule:nonzero;"/></svg>